<?xml version="1.0" encoding="UTF-8"?>
<!DOCTYPE svg PUBLIC "-//W3C//DTD SVG 1.1//EN" "http://www.w3.org/Graphics/SVG/1.1/DTD/svg11.dtd">
<svg xmlns="http://www.w3.org/2000/svg" version="1.1" width="843px" height="839px" style="shape-rendering:geometricPrecision; text-rendering:geometricPrecision; image-rendering:optimizeQuality; fill-rule:evenodd; clip-rule:evenodd" xmlns:xlink="http://www.w3.org/1999/xlink">
<g><path style="opacity:0.983" fill="#000000" d="M 42.5,-0.5 C 294.5,-0.5 546.5,-0.5 798.5,-0.5C 825.292,5.9631 839.958,22.9631 842.5,50.5C 842.5,298.167 842.5,545.833 842.5,793.5C 837.895,818.404 823.228,833.404 798.5,838.5C 546.833,838.5 295.167,838.5 43.5,838.5C 19.1397,833.473 4.47299,818.806 -0.5,794.5C -0.5,543.5 -0.5,292.5 -0.5,41.5C 5.2907,18.7089 19.624,4.70885 42.5,-0.5 Z M 51.5,41.5 C 299.167,41.7554 546.834,42.2554 794.5,43C 797.467,45.1005 799.3,47.9338 800,51.5C 800.667,296.167 800.667,540.833 800,785.5C 799.969,791.863 796.803,795.363 790.5,796C 543.833,796.667 297.167,796.667 50.5,796C 45.8625,795.446 43.0291,792.946 42,788.5C 41.3333,542.167 41.3333,295.833 42,49.5C 43.555,44.8198 46.7217,42.1531 51.5,41.5 Z M 308.5,286.5 C 382.167,286.333 455.834,286.5 529.5,287C 545.742,288.911 553.908,298.078 554,314.5C 554.667,384.5 554.667,454.5 554,524.5C 554.037,539.292 546.87,548.125 532.5,551C 457.833,551.667 383.167,551.667 308.5,551C 296.124,548.622 289.291,541.122 288,528.5C 287.333,454.833 287.333,381.167 288,307.5C 290.32,296.014 297.153,289.014 308.5,286.5 Z"/></g>
<g><path style="opacity:0.974" fill="#000000" d="M 315.5,251.5 C 385.834,251.333 456.167,251.5 526.5,252C 552.165,251.403 570.998,262.237 583,284.5C 585.601,290.235 587.267,296.235 588,302.5C 588.179,374.845 588.679,447.178 589.5,519.5C 590.966,540.723 583.966,558.557 568.5,573C 560.859,579.153 552.192,583.153 542.5,585C 461.833,585.667 381.167,585.667 300.5,585C 271.524,578.353 255.69,560.187 253,530.5C 252.021,454.14 252.354,377.807 254,301.5C 257.781,278.403 270.615,262.903 292.5,255C 300.239,253.351 307.906,252.185 315.5,251.5 Z M 308.5,286.5 C 297.153,289.014 290.32,296.014 288,307.5C 287.333,381.167 287.333,454.833 288,528.5C 289.291,541.122 296.124,548.622 308.5,551C 383.167,551.667 457.833,551.667 532.5,551C 546.87,548.125 554.037,539.292 554,524.5C 554.667,454.5 554.667,384.5 554,314.5C 553.908,298.078 545.742,288.911 529.5,287C 455.834,286.5 382.167,286.333 308.5,286.5 Z"/></g>
</svg>
