<?xml version="1.0" encoding="UTF-8"?>
<!DOCTYPE svg PUBLIC "-//W3C//DTD SVG 1.1//EN" "http://www.w3.org/Graphics/SVG/1.1/DTD/svg11.dtd">
<svg xmlns="http://www.w3.org/2000/svg" version="1.1" width="444px" height="894px" style="shape-rendering:geometricPrecision; text-rendering:geometricPrecision; image-rendering:optimizeQuality; fill-rule:evenodd; clip-rule:evenodd" xmlns:xlink="http://www.w3.org/1999/xlink">
<g><path style="opacity:0.984" fill="#000000" d="M 164.5,-0.5 C 202.833,-0.5 241.167,-0.5 279.5,-0.5C 304.018,0.11683 328.685,0.950164 353.5,2C 359.248,2.87296 364.581,4.87296 369.5,8C 373.333,11.8333 377.167,15.6667 381,19.5C 398.021,258.769 416.688,498.102 437,737.5C 438.611,755.382 440.777,773.049 443.5,790.5C 443.5,800.5 443.5,810.5 443.5,820.5C 439.608,834.413 431.275,844.913 418.5,852C 413.167,854.667 407.833,857.333 402.5,860C 389.992,868.421 377.658,877.087 365.5,886C 358.125,889.094 350.458,891.094 342.5,892C 323.329,892.168 304.329,892.668 285.5,893.5C 278.833,893.5 272.167,893.5 265.5,893.5C 261.122,892.479 256.788,890.979 252.5,889C 231.833,888.333 211.167,888.333 190.5,889C 186.058,891.616 181.392,893.116 176.5,893.5C 170.833,893.5 165.167,893.5 159.5,893.5C 137.99,892.764 116.323,891.931 94.5,891C 81.1573,889.829 70.1573,884.162 61.5,874C 54.646,870.408 48.3126,866.075 42.5,861C 28.3986,855.226 16.2319,846.726 6,835.5C 2.13055,831.109 -0.0361192,826.109 -0.5,820.5C -0.5,810.833 -0.5,801.167 -0.5,791.5C 7.51901,724.133 14.019,656.466 19,588.5C 33.678,401.358 47.678,214.358 61,27.5C 62.1612,21.5123 64.6612,16.1789 68.5,11.5C 76.2168,5.75843 84.8835,2.25843 94.5,1C 118.004,0.83207 141.337,0.33207 164.5,-0.5 Z M 193.5,66.5 C 241.165,67.0581 288.831,67.3914 336.5,67.5C 351.724,290.306 368.891,512.973 388,735.5C 389.621,753.254 391.787,770.921 394.5,788.5C 378.866,799.316 361.866,807.482 343.5,813C 263.167,824.333 182.834,824.333 102.5,813C 85.5532,810.462 69.5532,805.129 54.5,797C 51.9979,795.663 49.9979,793.829 48.5,791.5C 57.7179,701.603 65.8846,611.603 73,521.5C 84.5938,370.186 95.7605,218.853 106.5,67.5C 135.671,67.8314 164.671,67.498 193.5,66.5 Z"/></g>
</svg>
