<?xml version="1.0" encoding="UTF-8"?>
<!DOCTYPE svg PUBLIC "-//W3C//DTD SVG 1.1//EN" "http://www.w3.org/Graphics/SVG/1.1/DTD/svg11.dtd">
<svg xmlns="http://www.w3.org/2000/svg" version="1.1" width="406px" height="856px" style="shape-rendering:geometricPrecision; text-rendering:geometricPrecision; image-rendering:optimizeQuality; fill-rule:evenodd; clip-rule:evenodd" xmlns:xlink="http://www.w3.org/1999/xlink">
<g><path style="opacity:0.919" fill="#000000" d="M 145.5,-0.5 C 183.833,-0.5 222.167,-0.5 260.5,-0.5C 284.353,0.108028 308.353,0.941361 332.5,2C 338.151,2.98601 341.985,6.15268 344,11.5C 360.651,247.629 378.984,483.629 399,719.5C 400.611,737.382 402.777,755.049 405.5,772.5C 405.5,781.5 405.5,790.5 405.5,799.5C 402.882,805.965 398.548,811.131 392.5,815C 385.658,818.922 378.658,822.588 371.5,826C 359.753,834.756 347.753,843.089 335.5,851C 331.277,852.472 326.943,853.472 322.5,854C 303.662,854.168 284.996,854.668 266.5,855.5C 260.167,855.5 253.833,855.5 247.5,855.5C 244.977,854.543 242.643,853.21 240.5,851.5C 215.173,850.334 189.84,850.167 164.5,851C 162.359,853.633 159.692,855.133 156.5,855.5C 151.167,855.5 145.833,855.5 140.5,855.5C 119.323,854.759 97.9898,853.926 76.5,853C 73.4245,852.654 70.4245,851.988 67.5,851C 50.1892,836.703 31.5225,824.37 11.5,814C 6.43593,810.318 2.43593,805.818 -0.5,800.5C -0.5,791.167 -0.5,781.833 -0.5,772.5C 7.18575,709.468 13.3524,646.134 18,582.5C 32.9964,391.881 47.3297,201.214 61,10.5C 61.7922,8.41267 62.9588,6.57934 64.5,5C 68.6457,3.0626 72.979,1.72927 77.5,1C 100.337,0.83203 123.004,0.33203 145.5,-0.5 Z M 174.5,28.5 C 226.851,28.663 279.184,29.4963 331.5,31C 334.094,32.339 335.594,34.5056 336,37.5C 351.192,263.666 368.526,489.666 388,715.5C 390.214,737.045 392.714,758.545 395.5,780C 381.512,789.333 366.845,797.666 351.5,805C 343.426,808.436 335.093,811.103 326.5,813C 251.964,823.109 177.297,824.109 102.5,816C 79.7135,813.803 57.7135,808.47 36.5,800C 27.0444,795.525 18.5444,789.692 11,782.5C 10.5,781 10,779.5 9.5,778C 18.4738,694.289 26.3071,610.456 33,526.5C 45.6632,363.882 57.6632,201.216 69,38.5C 69.117,35.0885 70.617,32.5885 73.5,31C 107.318,29.9322 140.985,29.0989 174.5,28.5 Z M 208.5,83.5 C 210.042,84.3007 211.708,84.634 213.5,84.5C 214.906,89.9313 212.906,92.2647 207.5,91.5C 205.923,88.5176 206.256,85.8509 208.5,83.5 Z M 238.5,84.5 C 240.5,84.5 242.5,84.5 244.5,84.5C 244.5,86.5 244.5,88.5 244.5,90.5C 242.5,90.5 240.5,90.5 238.5,90.5C 238.5,88.5 238.5,86.5 238.5,84.5 Z M 252.5,89.5 C 255.592,91.032 258.592,91.6987 261.5,91.5C 258.572,92.4841 255.572,92.8174 252.5,92.5C 252.5,91.5 252.5,90.5 252.5,89.5 Z M 199.5,679.5 C 220.005,681.168 228.838,692.168 226,712.5C 217.411,728.55 204.911,732.716 188.5,725C 173.934,711.311 173.934,697.644 188.5,684C 192.053,681.879 195.72,680.379 199.5,679.5 Z M 336.5,822.5 C 327.895,826.2 318.895,829.033 309.5,831C 290.405,833.577 271.238,835.411 252,836.5C 201.077,836.503 150.244,834.337 99.5,830C 80.7882,828.715 62.4549,825.381 44.5,820C 30.721,815.79 19.3877,808.123 10.5,797C 10.6667,796.5 10.8333,796 11,795.5C 28.9985,807.909 48.8319,816.076 70.5,820C 94.5965,824.887 118.93,827.887 143.5,829C 193.487,834.044 243.487,834.378 293.5,830C 307.962,828.145 322.296,825.645 336.5,822.5 Z M 393.5,796.5 C 394.043,796.56 394.376,796.893 394.5,797.5C 390.768,801.864 386.102,804.364 380.5,805C 385.24,802.64 389.574,799.807 393.5,796.5 Z M 63.5,833.5 C 63.7352,832.903 64.2352,832.57 65,832.5C 75.093,834.719 85.2596,836.552 95.5,838C 84.4431,839.063 73.7764,837.563 63.5,833.5 Z M 338.5,833.5 C 329.788,838.059 320.455,839.559 310.5,838C 319.828,836.39 329.161,834.89 338.5,833.5 Z"/></g>
<g><path style="opacity:0.897" fill="#000000" d="M 137.5,71.5 C 139.467,71.2606 141.301,71.5939 143,72.5C 143.333,75.8333 143.667,79.1667 144,82.5C 148.846,75.4675 154.513,74.8008 161,80.5C 161.333,78.1667 161.667,75.8333 162,73.5C 164.041,72.5769 166.208,72.2436 168.5,72.5C 168.5,74.1667 168.5,75.8333 168.5,77.5C 169.833,77.5 171.167,77.5 172.5,77.5C 172.5,79.5 172.5,81.5 172.5,83.5C 171.5,83.5 170.5,83.5 169.5,83.5C 169.5,85.8333 169.5,88.1667 169.5,90.5C 170.5,90.5 171.5,90.5 172.5,90.5C 172.457,79.3613 177.791,75.1946 188.5,78C 192.823,80.4565 193.49,83.6231 190.5,87.5C 193.28,90.987 192.947,94.1537 189.5,97C 183.531,98.0569 177.531,98.5569 171.5,98.5C 167.965,98.6491 165.132,97.3158 163,94.5C 162.626,95.4162 162.126,96.2496 161.5,97C 159.19,97.4966 156.857,97.6633 154.5,97.5C 154.5,93.5 154.5,89.5 154.5,85.5C 153.167,85.5 151.833,85.5 150.5,85.5C 150.793,89.4367 150.46,93.27 149.5,97C 145.399,96.6504 141.399,96.8171 137.5,97.5C 137.29,88.7297 137.29,80.0631 137.5,71.5 Z"/></g>
<g><path style="opacity:0.889" fill="#000000" d="M 193.5,72.5 C 197.601,73.3659 201.601,73.3659 205.5,72.5C 205.5,74.1667 205.5,75.8333 205.5,77.5C 211.499,76.3768 216.499,78.0435 220.5,82.5C 221.648,80.8513 222.981,79.3513 224.5,78C 229.863,77.7361 235.197,77.2361 240.5,76.5C 245.184,76.5877 248.684,78.5877 251,82.5C 254.607,76.853 259.607,75.1863 266,77.5C 266.495,79.4727 266.662,81.4727 266.5,83.5C 263.753,83.1866 261.086,83.52 258.5,84.5C 261.438,84.0914 264.438,84.7581 267.5,86.5C 270.747,94.5728 268.08,98.5728 259.5,98.5C 256.318,98.9541 253.818,97.9541 252,95.5C 251.626,96.4162 251.126,97.2496 250.5,98C 243.436,99.7452 237.269,98.2452 232,93.5C 230.881,90.9429 230.715,88.4429 231.5,86C 230.207,85.51 228.873,85.3433 227.5,85.5C 227.665,89.1817 227.499,92.8484 227,96.5C 224.619,97.435 222.119,97.7683 219.5,97.5C 219.657,96.1266 219.49,94.7932 219,93.5C 215.65,98.0834 211.15,99.5834 205.5,98C 203,96.8333 201.167,95 200,92.5C 199.506,94.1341 199.34,95.8008 199.5,97.5C 197.5,97.5 195.5,97.5 193.5,97.5C 193.5,89.1667 193.5,80.8333 193.5,72.5 Z M 208.5,83.5 C 206.256,85.8509 205.923,88.5176 207.5,91.5C 212.906,92.2647 214.906,89.9313 213.5,84.5C 211.708,84.634 210.042,84.3007 208.5,83.5 Z M 238.5,84.5 C 238.5,86.5 238.5,88.5 238.5,90.5C 240.5,90.5 242.5,90.5 244.5,90.5C 244.5,88.5 244.5,86.5 244.5,84.5C 242.5,84.5 240.5,84.5 238.5,84.5 Z M 252.5,89.5 C 252.5,90.5 252.5,91.5 252.5,92.5C 255.572,92.8174 258.572,92.4841 261.5,91.5C 258.592,91.6987 255.592,91.032 252.5,89.5 Z"/></g>
<g><path style="opacity:0.986" fill="#000000" d="M 194.5,529.5 C 199.833,529.5 205.167,529.5 210.5,529.5C 210.5,533.167 210.5,536.833 210.5,540.5C 205.156,540.666 199.823,540.499 194.5,540C 193.833,539 193.167,538 192.5,537C 194.291,534.894 194.958,532.394 194.5,529.5 Z"/></g>
<g><path style="opacity:0.843" fill="#000000" d="M 198.5,545.5 C 207.082,544.535 210.082,548.202 207.5,556.5C 204.167,557.833 200.833,557.833 197.5,556.5C 196.041,552.669 196.375,549.002 198.5,545.5 Z"/></g>
<g><path style="opacity:0.923" fill="#000000" d="M 204.5,560.5 C 206.262,560.357 207.929,560.691 209.5,561.5C 211.436,565.045 211.769,568.711 210.5,572.5C 209.393,573.022 208.226,573.355 207,573.5C 202.044,572.822 197.211,571.655 192.5,570C 193.092,566.968 194.426,564.302 196.5,562C 198.441,561.257 200.274,561.424 202,562.5C 202.995,561.934 203.828,561.267 204.5,560.5 Z"/></g>
<g><path style="opacity:0.924" fill="#000000" d="M 198.5,577.5 C 201.448,577.223 204.281,577.556 207,578.5C 209.852,587.649 206.852,590.649 198,587.5C 197.253,584.076 197.42,580.743 198.5,577.5 Z"/></g>
<g><path style="opacity:0.866" fill="#000000" d="M 197.5,591.5 C 201.936,591.21 206.27,591.71 210.5,593C 212.504,595.841 213.004,599.007 212,602.5C 208.119,602.055 204.619,600.722 201.5,598.5C 200.09,598.868 199.09,599.701 198.5,601C 196.236,601.236 194.069,601.736 192,602.5C 191.088,600.341 190.255,598.175 189.5,596C 192.099,594.205 194.766,592.705 197.5,591.5 Z"/></g>
<g><path style="opacity:0.826" fill="#000000" d="M 200.5,608.5 C 202.861,608.674 205.194,609.007 207.5,609.5C 208.833,612.833 208.833,616.167 207.5,619.5C 204.167,620.833 200.833,620.833 197.5,619.5C 196.167,616.167 196.167,612.833 197.5,609.5C 198.791,609.737 199.791,609.404 200.5,608.5 Z"/></g>
<g><path style="opacity:0.875" fill="#000000" d="M 198.5,623.5 C 204.235,622.535 208.568,624.535 211.5,629.5C 210.675,630.386 209.675,630.719 208.5,630.5C 207.402,635.442 204.402,637.942 199.5,638C 198.378,634.273 196.045,631.606 192.5,630C 193.351,626.653 195.351,624.487 198.5,623.5 Z"/></g>
<g><path style="opacity:0.868" fill="#000000" d="M 200.5,641.5 C 202.861,641.674 205.194,642.007 207.5,642.5C 207.665,645.518 207.498,648.518 207,651.5C 203.304,654.425 199.971,654.092 197,650.5C 196.57,647.808 196.737,645.141 197.5,642.5C 198.791,642.737 199.791,642.404 200.5,641.5 Z"/></g>
<g><path style="opacity:0.849" fill="#000000" d="M 195.5,673.5 C 214.186,671.413 226.686,679.08 233,696.5C 235.541,710.896 231.041,722.396 219.5,731C 204.211,738.091 190.378,735.924 178,724.5C 169.85,711.702 169.517,698.702 177,685.5C 182.066,679.564 188.232,675.564 195.5,673.5 Z M 199.5,679.5 C 195.72,680.379 192.053,681.879 188.5,684C 173.934,697.644 173.934,711.311 188.5,725C 204.911,732.716 217.411,728.55 226,712.5C 228.838,692.168 220.005,681.168 199.5,679.5 Z"/></g>
<g><path style="opacity:0.957" fill="#000000" d="M 188.5,738.5 C 197.318,737.507 206.318,737.173 215.5,737.5C 215.5,741.167 215.5,744.833 215.5,748.5C 212.482,748.665 209.482,748.498 206.5,748C 207.609,746.187 206.942,745.354 204.5,745.5C 204.5,746.5 204.5,747.5 204.5,748.5C 199.902,749.043 195.236,748.543 190.5,747C 189.872,744.061 189.205,741.228 188.5,738.5 Z"/></g>
</svg>
