<?xml version="1.0" encoding="UTF-8"?>
<!DOCTYPE svg PUBLIC "-//W3C//DTD SVG 1.1//EN" "http://www.w3.org/Graphics/SVG/1.1/DTD/svg11.dtd">
<svg xmlns="http://www.w3.org/2000/svg" version="1.1" width="976px" height="198px" style="shape-rendering:geometricPrecision; text-rendering:geometricPrecision; image-rendering:optimizeQuality; fill-rule:evenodd; clip-rule:evenodd" xmlns:xlink="http://www.w3.org/1999/xlink">
<g><path style="opacity:0.964" fill="#000000" d="M 12.5,-0.5 C 328.833,-0.5 645.167,-0.5 961.5,-0.5C 964.408,0.95406 967.408,2.45406 970.5,4C 972.317,5.79976 973.484,7.96642 974,10.5C 974.168,41.3361 974.668,72.0027 975.5,102.5C 975.5,129.167 975.5,155.833 975.5,182.5C 974.005,189.606 969.672,194.106 962.5,196C 645.5,196.667 328.5,196.667 11.5,196C 6.04369,194.037 2.04369,190.537 -0.5,185.5C -0.5,127.5 -0.5,69.5 -0.5,11.5C 1.93349,5.39833 6.26682,1.39833 12.5,-0.5 Z M 18.5,17.5 C 24.8333,17.5 31.1667,17.5 37.5,17.5C 37.5,70.8333 37.5,124.167 37.5,177.5C 30.8333,177.5 24.1667,177.5 17.5,177.5C 17.1713,124.095 17.5046,70.7617 18.5,17.5 Z M 844.5,18.5 C 881.833,18.5 919.167,18.5 956.5,18.5C 957.64,71.4847 957.807,124.485 957,177.5C 919.58,177.616 882.08,177.616 844.5,177.5C 844.5,124.5 844.5,71.5 844.5,18.5 Z M 56.5,22.5 C 135.5,22.5 214.5,22.5 293.5,22.5C 293.5,40.1667 293.5,57.8333 293.5,75.5C 214.5,75.5 135.5,75.5 56.5,75.5C 56.5,72.1667 56.5,68.8333 56.5,65.5C 66.0873,64.9046 70.4206,59.9046 69.5,50.5C 70.0791,41.4088 65.7458,36.7421 56.5,36.5C 56.5,31.8333 56.5,27.1667 56.5,22.5 Z M 319.5,22.5 C 398.5,22.5 477.5,22.5 556.5,22.5C 556.5,40.1667 556.5,57.8333 556.5,75.5C 477.5,75.5 398.5,75.5 319.5,75.5C 319.5,57.8333 319.5,40.1667 319.5,22.5 Z M 575.5,22.5 C 658.833,22.5 742.167,22.5 825.5,22.5C 825.5,40.1667 825.5,57.8333 825.5,75.5C 742.167,75.5 658.833,75.5 575.5,75.5C 575.5,57.8333 575.5,40.1667 575.5,22.5 Z M 68.5,98.5 C 320.666,97.5002 572.999,97.1669 825.5,97.5C 825.5,107.167 825.5,116.833 825.5,126.5C 569.167,126.5 312.833,126.5 56.5,126.5C 56.5,123.833 56.5,121.167 56.5,118.5C 60.8814,118.628 65.2147,118.295 69.5,117.5C 69.8235,110.978 69.4902,104.645 68.5,98.5 Z M 70.5,148.5 C 322.167,148.5 573.833,148.5 825.5,148.5C 825.5,158.167 825.5,167.833 825.5,177.5C 569.167,177.5 312.833,177.5 56.5,177.5C 56.1774,173.774 56.5108,170.107 57.5,166.5C 60.5539,165.653 63.5539,164.653 66.5,163.5C 68.7509,158.74 70.0842,153.74 70.5,148.5 Z"/></g>
</svg>
