<?xml version="1.0" encoding="UTF-8"?>
<!DOCTYPE svg PUBLIC "-//W3C//DTD SVG 1.1//EN" "http://www.w3.org/Graphics/SVG/1.1/DTD/svg11.dtd">
<svg xmlns="http://www.w3.org/2000/svg" version="1.1" width="368px" height="883px" style="shape-rendering:geometricPrecision; text-rendering:geometricPrecision; image-rendering:optimizeQuality; fill-rule:evenodd; clip-rule:evenodd" xmlns:xlink="http://www.w3.org/1999/xlink">
<g><path style="opacity:0.974" fill="#000000" d="M 92.5,-0.5 C 153.167,-0.5 213.833,-0.5 274.5,-0.5C 284.366,0.167192 294.366,1.00053 304.5,2C 330.325,8.49479 344.825,24.9948 348,51.5C 354.558,317.659 361.058,583.659 367.5,849.5C 367.5,850.833 367.5,852.167 367.5,853.5C 365.928,865.915 359.261,874.415 347.5,879C 319.392,880.795 291.392,881.962 263.5,882.5C 210.167,882.5 156.833,882.5 103.5,882.5C 75.608,881.962 47.608,880.795 19.5,879C 8.49212,874.794 1.82545,866.96 -0.5,855.5C -0.5,850.167 -0.5,844.833 -0.5,839.5C 6.11781,576.997 12.6178,314.331 19,51.5C 22.8491,23.3194 38.6824,6.48611 66.5,1C 75.343,0.829591 84.0097,0.329591 92.5,-0.5 Z M 314.5,46.5 C 316.417,49.8044 317.584,53.4711 318,57.5C 323.198,267.826 328.031,478.16 332.5,688.5C 328.821,688.724 325.154,689.058 321.5,689.5C 320.049,478.163 318.216,266.829 316,55.5C 315.498,52.4869 314.998,49.4869 314.5,46.5 Z M 50.5,52.5 C 48.799,264.833 47.1324,477.166 45.5,689.5C 41.8212,689.276 38.1545,688.942 34.5,688.5C 38.8607,478.49 43.694,268.49 49,58.5C 49.1909,56.2922 49.6909,54.2922 50.5,52.5 Z M 79.5,58.5 C 148.833,58.5 218.167,58.5 287.5,58.5C 289.025,269.499 290.358,480.499 291.5,691.5C 219.5,691.5 147.5,691.5 75.5,691.5C 76.6422,480.499 77.9755,269.499 79.5,58.5 Z M 33.5,717.5 C 37.4767,718.259 41.4767,718.925 45.5,719.5C 45.6665,729.839 45.4998,740.172 45,750.5C 40.6885,754.481 36.6885,758.814 33,763.5C 32.8331,748.168 32.9997,732.835 33.5,717.5 Z M 331.5,717.5 C 332.823,720.938 333.49,724.771 333.5,729C 334.333,740.495 334.5,751.995 334,763.5C 330.679,758.514 326.679,754.18 322,750.5C 321.5,740.172 321.334,729.839 321.5,719.5C 325.011,719.101 328.344,718.434 331.5,717.5 Z M 74.5,720.5 C 147.167,720.5 219.833,720.5 292.5,720.5C 292.5,728.833 292.5,737.167 292.5,745.5C 219.833,753.5 147.166,753.5 74.5,745.5C 74.5,737.167 74.5,728.833 74.5,720.5 Z M 62.5,773.5 C 142.519,783.902 222.519,784.069 302.5,774C 315.636,788.773 324.136,805.94 328,825.5C 329.741,833.76 330.907,842.093 331.5,850.5C 232.833,853.153 134.167,853.153 35.5,850.5C 36.7915,821.951 45.7915,796.284 62.5,773.5 Z"/></g>
</svg>
