<?xml version="1.0" encoding="UTF-8"?>
<!DOCTYPE svg PUBLIC "-//W3C//DTD SVG 1.1//EN" "http://www.w3.org/Graphics/SVG/1.1/DTD/svg11.dtd">
<svg xmlns="http://www.w3.org/2000/svg" version="1.1" width="786px" height="748px" style="shape-rendering:geometricPrecision; text-rendering:geometricPrecision; image-rendering:optimizeQuality; fill-rule:evenodd; clip-rule:evenodd" xmlns:xlink="http://www.w3.org/1999/xlink">
<g><path style="opacity:0.982" fill="#000000" d="M 0.5,-0.5 C 2.5,-0.5 4.5,-0.5 6.5,-0.5C 28.1949,4.89992 49.3615,12.2333 70,21.5C 79.0738,184.829 88.0738,348.162 97,511.5C 99.9359,502.026 103.269,492.692 107,483.5C 111.42,476.411 117.587,471.577 125.5,469C 137.619,465.812 149.619,462.312 161.5,458.5C 159.755,322.01 157.755,185.343 155.5,48.5C 155.833,35.1667 156.167,21.8333 156.5,8.5C 158.111,7.67975 158.778,6.34642 158.5,4.5C 159.93,4.42082 161.264,4.75415 162.5,5.5C 167.034,2.89164 171.701,0.89164 176.5,-0.5C 180.167,-0.5 183.833,-0.5 187.5,-0.5C 193.666,1.46282 199.999,3.29615 206.5,5C 207.288,8.07566 207.788,11.2423 208,14.5C 209.41,15.7875 210.91,16.9542 212.5,18C 210.651,19.093 208.984,20.4263 207.5,22C 214.905,165.74 221.572,309.574 227.5,453.5C 337.5,453.5 447.5,453.5 557.5,453.5C 563.727,312.665 570.061,171.832 576.5,31C 576.167,27.8333 575.833,24.6667 575.5,21.5C 573.77,20.9744 572.436,19.9744 571.5,18.5C 573.422,17.289 575.255,15.9557 577,14.5C 577.711,11.266 578.545,8.09935 579.5,5C 585.918,2.98376 592.252,1.15043 598.5,-0.5C 601.5,-0.5 604.5,-0.5 607.5,-0.5C 614.734,1.6079 621.734,4.6079 628.5,8.5C 628.833,23.8333 629.167,39.1667 629.5,54.5C 627.279,189.166 625.445,323.833 624,458.5C 639.225,463.464 654.391,468.63 669.5,474C 671.709,475.873 673.542,478.04 675,480.5C 679.333,490.5 683.667,500.5 688,510.5C 697.14,348.176 706.14,185.843 715,23.5C 715.318,21.9391 716.151,20.7724 717.5,20C 732.833,14 748.167,8 763.5,2C 770.492,1.50038 777.492,1.33371 784.5,1.5C 784.169,25.006 784.502,48.3393 785.5,71.5C 785.5,248.833 785.5,426.167 785.5,603.5C 774.486,607.227 763.486,611.061 752.5,615C 746.925,616.515 741.258,617.515 735.5,618C 743.295,635.092 750.962,652.259 758.5,669.5C 764.833,672.167 771.167,674.833 777.5,677.5C 770.958,680.604 764.291,683.437 757.5,686C 748.605,699.233 740.105,712.733 732,726.5C 727.39,730.796 721.89,732.796 715.5,732.5C 715.502,736.387 714.502,739.887 712.5,743C 687.833,743.667 663.167,743.667 638.5,743C 635.193,742.347 632.527,740.681 630.5,738C 569.377,741.331 508.377,744.498 447.5,747.5C 414.5,747.5 381.5,747.5 348.5,747.5C 285.105,745.102 221.605,741.769 158,737.5C 154.741,739.751 151.241,741.584 147.5,743C 121.835,743.5 96.1688,743.667 70.5,743.5C 70.7507,740.091 70.4173,736.758 69.5,733.5C 64.7768,732.188 60.1101,730.688 55.5,729C 47.9592,718.088 40.7925,706.921 34,695.5C 31.0924,693.975 27.9257,692.975 24.5,692.5C 25.73,690.067 26.73,687.567 27.5,685C 24.7779,678.017 25.2779,671.183 29,664.5C 35.9304,649.208 42.7637,633.875 49.5,618.5C 43.7543,617.732 38.0877,616.565 32.5,615C 21.5141,611.061 10.5141,607.227 -0.5,603.5C -0.5,436.833 -0.5,270.167 -0.5,103.5C 0.498363,69.004 0.831696,34.3373 0.5,-0.5 Z M 49.5,455.5 C 52.5648,488.307 54.7315,521.307 56,554.5C 54.9887,555.337 53.8221,555.67 52.5,555.5C 51.648,522.162 50.648,488.829 49.5,455.5 Z M 734.5,456.5 C 735.165,460.151 735.499,463.985 735.5,468C 734.298,497.162 733.298,526.329 732.5,555.5C 731.178,555.67 730.011,555.337 729,554.5C 728.833,552.5 728.667,550.5 728.5,548.5C 730.899,517.854 732.899,487.188 734.5,456.5 Z M 177.5,484.5 C 181.981,486.459 185.815,489.459 189,493.5C 189.667,494.5 189.667,495.5 189,496.5C 155.085,546.661 121.419,596.994 88,647.5C 86.0616,650.106 83.5616,651.939 80.5,653C 75.5435,654.328 70.5435,654.994 65.5,655C 88.7955,602.907 111.962,550.741 135,498.5C 149.281,493.895 163.448,489.228 177.5,484.5 Z M 604.5,484.5 C 619.766,488.867 634.933,493.533 650,498.5C 673.038,550.741 696.205,602.907 719.5,655C 713.482,654.114 707.482,652.78 701.5,651C 700.069,650.535 698.903,649.701 698,648.5C 664.496,597.489 630.496,546.822 596,496.5C 595.333,495.5 595.333,494.5 596,493.5C 599.038,490.631 601.871,487.631 604.5,484.5 Z M 221.5,505.5 C 333.16,506.304 444.827,506.804 556.5,507C 560.871,507.172 565.204,507.672 569.5,508.5C 600.957,555.247 632.291,602.081 663.5,649C 573.017,651.568 482.517,653.401 392,654.5C 301.816,653.387 211.65,651.554 121.5,649C 149.876,606.414 178.376,563.914 207,521.5C 209.106,518.392 210.772,515.059 212,511.5C 215.34,509.637 218.507,507.637 221.5,505.5 Z M 663.5,685.5 C 674.362,685.757 685.195,686.423 696,687.5C 696.833,687.833 697.667,688.167 698.5,688.5C 697.344,692.019 695.01,694.186 691.5,695C 591.508,703.916 491.341,709.75 391,712.5C 302.724,709.778 214.557,704.945 126.5,698C 114.454,697.062 102.454,695.729 90.5,694C 88.9186,692.172 87.5853,690.172 86.5,688C 100.935,686.858 115.435,686.358 130,686.5C 268.829,688.312 407.662,688.812 546.5,688C 585.672,687.593 624.672,686.76 663.5,685.5 Z"/></g>
</svg>
