<?xml version="1.0" encoding="UTF-8"?>
<!DOCTYPE svg PUBLIC "-//W3C//DTD SVG 1.1//EN" "http://www.w3.org/Graphics/SVG/1.1/DTD/svg11.dtd">
<svg xmlns="http://www.w3.org/2000/svg" version="1.1" width="930px" height="159px" style="shape-rendering:geometricPrecision; text-rendering:geometricPrecision; image-rendering:optimizeQuality; fill-rule:evenodd; clip-rule:evenodd" xmlns:xlink="http://www.w3.org/1999/xlink">
<g><path style="opacity:0.976" fill="#000000" d="M 169.5,-0.5 C 398.833,-0.5 628.167,-0.5 857.5,-0.5C 866.508,1.69654 873.508,6.8632 878.5,15C 892.792,26.29 906.792,37.9566 920.5,50C 923.222,52.3578 926.222,54.1911 929.5,55.5C 929.5,89.8333 929.5,124.167 929.5,158.5C 619.5,158.5 309.5,158.5 -0.5,158.5C -0.5,124.5 -0.5,90.5 -0.5,56.5C 20.7084,37.792 42.3751,19.6254 64.5,2C 99.6089,0.853501 134.609,0.0201681 169.5,-0.5 Z M 77.5,13.5 C 337.167,13.7425 596.834,14.2425 856.5,15C 870.208,27.0434 884.208,38.71 898.5,50C 609.167,50.6667 319.833,50.6667 30.5,50C 40.5,41.3333 50.5,32.6667 60.5,24C 65.9286,19.9604 71.5952,16.4604 77.5,13.5 Z M 13.5,67.5 C 14.4972,67.4701 15.1639,67.9701 15.5,69C 14.6803,94.4699 14.1803,119.97 14,145.5C 13.5,119.502 13.3334,93.5021 13.5,67.5 Z M 911.5,67.5 C 912.833,67.5 914.167,67.5 915.5,67.5C 915.5,93.5 915.5,119.5 915.5,145.5C 914.5,145.5 913.5,145.5 912.5,145.5C 912.815,119.455 912.482,93.4555 911.5,67.5 Z M 27.5,74.5 C 318.167,74.5 608.833,74.5 899.5,74.5C 899.5,96.5 899.5,118.5 899.5,140.5C 608.833,140.5 318.167,140.5 27.5,140.5C 27.5,118.5 27.5,96.5 27.5,74.5 Z"/></g>
</svg>
