<svg xmlns="http://www.w3.org/2000/svg" width="328" height="236.999" viewBox="0 0 328 236.999">
  <g id="construction" transform="translate(0 -6.001)">
    <path id="Caminho_1505" data-name="Caminho 1505" d="M33.6,191.57a8.408,8.408,0,0,0,8.116-1.429c2.843-2.386,3.734-6.316,4.459-9.956l2.145-10.765-4.491,3.092c-3.229,2.224-6.532,4.519-8.767,7.739s-3.211,7.618-1.415,11.1" transform="translate(-2.071 -0.129) rotate(-0.5)" fill="#e6e6e6" opacity="0.7"/>
    <path id="Caminho_1543" data-name="Caminho 1543" d="M9588.055,23258.119c.509-.9,1.033-1.82,1.586-2.73a52.463,52.463,0,0,1-.739-12.246,19.185,19.185,0,0,1,3.776-10.152,16.959,16.959,0,0,1,4.378-3.928c.438-.275.847.414.409.684a16.079,16.079,0,0,0-6.421,7.664,25.432,25.432,0,0,0-1.384,11.084c.126,1.953.375,3.9.64,5.836,2.282-3.562,5.095-6.822,9.271-8.09a12.831,12.831,0,0,1,4.84-.5c.52.041.385.836-.123.789a11.959,11.959,0,0,0-7.734,2.049,20.068,20.068,0,0,0-5.312,5.732c-.882,1.342-1.67,2.736-2.458,4.133a.406.406,0,0,1-.362.211C9588.15,23258.658,9587.885,23258.418,9588.055,23258.119Z" transform="translate(-9555.85 -23050.891)" fill="#e6e6e6" opacity="0.7"/>
    <path id="Caminho_1507" data-name="Caminho 1507" d="M38.365,198.747a6.191,6.191,0,0,0,5.391,2.783c2.73-.13,5-2.034,7.052-3.842l6.057-5.349-4.009-.192c-2.883-.138-5.84-.267-8.586.623s-5.278,3.029-5.78,5.871" transform="matrix(0.998, -0.07, 0.07, 0.998, -14.107, 3.311)" fill="#e6e6e6" opacity="0.7"/>
    <path id="Caminho_1511" data-name="Caminho 1511" d="M254.273,129.08H162.529a2.766,2.766,0,0,1-2.763-2.763V95.367a2.766,2.766,0,0,1,2.763-2.763h91.744a2.768,2.768,0,0,1,2.764,2.763v30.95a2.767,2.767,0,0,1-2.764,2.763Z" transform="translate(-0.496 0.938)" fill="#f1f1f1"/>
    <path id="Caminho_1512" data-name="Caminho 1512" d="M198.454,100.893H174.137v2.763h24.317Z" transform="translate(-0.496 0.938)" fill="#00a335"/>
    <path id="Caminho_1513" data-name="Caminho 1513" d="M230.51,104.209a1.658,1.658,0,1,0-1.658-1.658A1.659,1.659,0,0,0,230.51,104.209Z" transform="translate(-0.496 0.938)" fill="#00a335"/>
    <path id="Caminho_1514" data-name="Caminho 1514" d="M236.037,104.209a1.658,1.658,0,1,0-1.658-1.658A1.658,1.658,0,0,0,236.037,104.209Z" transform="translate(-0.496 0.938)" fill="#00a335"/>
    <path id="Caminho_1515" data-name="Caminho 1515" d="M241.562,104.209a1.658,1.658,0,1,0-1.658-1.658A1.658,1.658,0,0,0,241.562,104.209Z" transform="translate(-0.496 0.938)" fill="#00a335"/>
    <path id="Caminho_1516" data-name="Caminho 1516" d="M254.273,168.318H162.529a2.766,2.766,0,0,1-2.763-2.763V134.6a2.766,2.766,0,0,1,2.763-2.763h91.744a2.767,2.767,0,0,1,2.764,2.763v30.95a2.767,2.767,0,0,1-2.764,2.763Z" transform="translate(-0.496 0.158)" fill="#f1f1f1"/>
    <path id="Caminho_1517" data-name="Caminho 1517" d="M198.454,140.133H174.137V142.9h24.317Z" transform="translate(-0.496 0.51)" fill="#00a335"/>
    <path id="Caminho_1518" data-name="Caminho 1518" d="M230.51,143.449a1.658,1.658,0,1,0-1.658-1.658A1.658,1.658,0,0,0,230.51,143.449Z" transform="translate(-0.496 0.51)" fill="#00a335"/>
    <path id="Caminho_1519" data-name="Caminho 1519" d="M236.037,143.449a1.658,1.658,0,1,0-1.658-1.658A1.658,1.658,0,0,0,236.037,143.449Z" transform="translate(-0.496 0.51)" fill="#00a335"/>
    <path id="Caminho_1520" data-name="Caminho 1520" d="M241.562,143.449a1.658,1.658,0,1,0-1.658-1.658A1.658,1.658,0,0,0,241.562,143.449Z" transform="translate(-0.496 0.51)" fill="#00a335"/>
    <path id="Caminho_1521" data-name="Caminho 1521" d="M254.273,207.559H162.529a2.767,2.767,0,0,1-2.763-2.764v-30.95a2.766,2.766,0,0,1,2.763-2.763h91.744a2.767,2.767,0,0,1,2.764,2.763v30.95a2.769,2.769,0,0,1-2.764,2.764Z" transform="translate(-0.496 -0.49)" fill="#f1f1f1"/>
    <path id="Caminho_1522" data-name="Caminho 1522" d="M198.454,179.373H174.137v2.763h24.317Z" transform="translate(-0.496 -0.49)" fill="#00a335"/>
    <path id="Caminho_1523" data-name="Caminho 1523" d="M230.51,182.689a1.658,1.658,0,1,0-1.658-1.658A1.658,1.658,0,0,0,230.51,182.689Z" transform="translate(-0.496 -0.49)" fill="#00a335"/>
    <path id="Caminho_1524" data-name="Caminho 1524" d="M236.037,182.689a1.658,1.658,0,1,0-1.658-1.658A1.658,1.658,0,0,0,236.037,182.689Z" transform="translate(-0.496 -0.49)" fill="#00a335"/>
    <path id="Caminho_1525" data-name="Caminho 1525" d="M241.562,182.689a1.658,1.658,0,1,0-1.658-1.658A1.658,1.658,0,0,0,241.562,182.689Z" transform="translate(-0.496 -0.49)" fill="#00a335"/>
    <path id="Caminho_1526" data-name="Caminho 1526" d="M219.687,62.38l-.1-.075,0,0a1.241,1.241,0,0,0-1.736.256L197.2,90.364h-2.272V89.83a.5.5,0,0,0-.5-.5h-1.356a.5.5,0,0,0-.5.5v.534h-.785V89.83a.5.5,0,0,0-.5-.5h-1.356a.5.5,0,0,0-.5.5v.534h-.782V89.83a.5.5,0,0,0-.5-.5h-1.355a.5.5,0,0,0-.5.5v.534h-.784V89.83a.5.5,0,0,0-.5-.5h-1.355a.5.5,0,0,0-.5.5v.534H182.4V89.83a.5.5,0,0,0-.5-.5h-1.356a.5.5,0,0,0-.351.145.482.482,0,0,0-.107.161.5.5,0,0,0-.038.19v.534h-.785V89.83a.5.5,0,0,0-.5-.5h-1.356a.5.5,0,0,0-.5.5v.534h-.785V89.83a.5.5,0,0,0-.5-.5h-1.356a.5.5,0,0,0-.5.5v.534H173V89.83a.5.5,0,0,0-.5-.5h-1.355a.5.5,0,0,0-.5.5v.534h-.784V89.83a.5.5,0,0,0-.5-.5h-1.355a.5.5,0,0,0-.5.5v.534h-.782V89.83a.5.5,0,0,0-.5-.5h-1.355a.5.5,0,0,0-.5.5v.534H163.4a1.238,1.238,0,0,0-.877.364,1.245,1.245,0,0,0-.364.878v1.184a1.241,1.241,0,0,0,1.241,1.241H196.99a1.849,1.849,0,0,0,1.811-1.474l.013.01,21.128-28.447,0,0a1.242,1.242,0,0,0-.257-1.737Z" transform="translate(-0.496 -0.49)" fill="#3f3d56"/>
    <path id="Caminho_1527" data-name="Caminho 1527" d="M89.18,197.017l4.172,2.134,10.22-15.074-6.157-3.151Z" transform="translate(-0.496 -0.49)" fill="#ffb7b7"/>
    <path id="Caminho_1528" data-name="Caminho 1528" d="M88.811,195.109l8.216,4.205h0a5.882,5.882,0,0,1,2.556,7.915l-.087.17-13.451-6.884Z" transform="translate(-0.496 -0.49)" fill="#2f2e41"/>
    <path id="Caminho_1529" data-name="Caminho 1529" d="M137.36,202.857h4.686l2.23-18.076h-6.917Z" transform="translate(-0.496 -0.49)" fill="#ffb7b7"/>
    <path id="Caminho_1530" data-name="Caminho 1530" d="M136.164,201.327h9.229a5.883,5.883,0,0,1,5.882,5.881v.192H136.164Z" transform="translate(-0.496 -0.49)" fill="#2f2e41"/>
    <path id="Caminho_1531" data-name="Caminho 1531" d="M115.44,55.419s-3.138-2.4-3.138,3.468l-.5,19.407,5.533,18.333,3.22-5.946L119.239,77.8Z" transform="translate(-0.496 -0.49)" fill="#00a335"/>
    <path id="Caminho_1532" data-name="Caminho 1532" d="M149.007,108.5s3.639,17.722-.97,32.266l-2.548,55.918-9.34-.727-3.275-41.484-1.688-33.009-8.016,31.189L101.579,192.44l-9.946-7.763s11.022-30.075,19.165-36.39l4.084-46.514Z" transform="translate(-0.496 -0.49)" fill="#2f2e41"/>
    <path id="Caminho_1533" data-name="Caminho 1533" d="M148.473,32.918a12.7,12.7,0,1,0-17.737-2.855A12.7,12.7,0,0,0,148.473,32.918Z" transform="translate(-0.496 -0.49)" fill="#ffb7b7"/>
    <path id="Caminho_1534" data-name="Caminho 1534" d="M139.061,24.667c1.289.834,3-.079,4.1-1.149s2.188-2.41,3.718-2.543c2.09-.181,3.63,1.968,5.648,2.542,2.279.647,4.715-.934,5.84-3.019s1.255-4.545,1.359-6.911l-1.458,2.309a5.376,5.376,0,0,0-.1-5.253l-1.336,3.77a4.222,4.222,0,0,0-2.882-5.244l-.961,2.168a39.165,39.165,0,0,0-7.164-3.855,13.144,13.144,0,0,0-7.995-.616c-3.916,1.087-6.816,4.567-8.217,8.382s-1.529,7.966-1.537,12.03c0,1.023.1,2.224.963,2.768a2.076,2.076,0,0,0,2.493-.508,5.549,5.549,0,0,0,1.15-2.472,11.589,11.589,0,0,1,1.469-3.87,3.362,3.362,0,0,1,3.59-1.485c1.316.441,1.911,2.47.789,3.286Z" transform="translate(-0.496 -0.49)" fill="#2f2e41"/>
    <path id="Caminho_1535" data-name="Caminho 1535" d="M127.745,35.6l2.229-3.1a89.7,89.7,0,0,1,9.167,4.169l.472,2.9L151.2,110.832l-21.058-.909L124.4,109.8l-2.176-.208-2.015.119-5.6-.119-5.7-3.3,5.616-17.177,1.816-15.691L113.541,58.64a18.82,18.82,0,0,1,10.075-20.893Z" transform="translate(-0.496 -0.49)" fill="#00a335"/>
    <path id="Caminho_1536" data-name="Caminho 1536" d="M175.207,89.542a3.639,3.639,0,0,1-4.526-3.265l-12.493-3.346,5.025-4.462,11.094,3.862a3.659,3.659,0,0,1,.9,7.212Z" transform="translate(-0.496 -0.49)" fill="#ffb7b7"/>
    <path id="Caminho_1537" data-name="Caminho 1537" d="M169.612,87.655a2.132,2.132,0,0,1-1.731.137l-20.552-7.8a21.949,21.949,0,0,1-11.813-9.956l-8.57-15.289a6.86,6.86,0,1,1,10.236-9.136l14.834,23.512,18.669,10.945a2.137,2.137,0,0,1,.909,2.272l-.929,3.934a2.127,2.127,0,0,1-1.053,1.381Z" transform="translate(-0.496 -0.49)" fill="#00a335"/>
    <text id="Página_em_construção" data-name="Página em construção" transform="translate(164 234)" fill="#253b40" font-size="26" font-family="NunitoSans-Regular, Nunito Sans"><tspan x="-128.31" y="0">Página em construção</tspan></text>
    <path id="Caminho_1539" data-name="Caminho 1539" d="M47.437,191.57a8.408,8.408,0,0,1-8.116-1.429c-2.843-2.386-3.734-6.316-4.459-9.956L32.717,169.42l4.491,3.092c3.229,2.224,6.532,4.519,8.767,7.739s3.211,7.618,1.415,11.1" transform="translate(265.555 -1.26) rotate(0.5)" fill="#e6e6e6" opacity="0.7"/>
    <path id="Caminho_1542" data-name="Caminho 1542" d="M9603.955,23258.447c-.787-1.4-1.575-2.791-2.457-4.133a20.068,20.068,0,0,0-5.312-5.732,11.954,11.954,0,0,0-7.729-2.049c-.514.047-.643-.748-.129-.789a12.869,12.869,0,0,1,4.845.5c4.176,1.268,6.987,4.531,9.272,8.1.263-1.928.509-3.857.634-5.8a25.544,25.544,0,0,0-1.378-11.107,16.092,16.092,0,0,0-6.427-7.676c-.432-.275-.029-.965.409-.689a16.992,16.992,0,0,1,4.378,3.934,19.261,19.261,0,0,1,3.776,10.174,52.482,52.482,0,0,1-.732,12.225c.553.91,1.076,1.826,1.585,2.725.166.3-.1.539-.373.539A.407.407,0,0,1,9603.955,23258.447Z" transform="translate(-9292.371 -23051.313)" fill="#e6e6e6" opacity="0.7"/>
    <path id="Caminho_1541" data-name="Caminho 1541" d="M56.865,198.747a6.191,6.191,0,0,1-5.391,2.783c-2.73-.13-5-2.034-7.052-3.842l-6.057-5.349,4.009-.192c2.883-.138,5.84-.267,8.586.623s5.278,3.029,5.78,5.871" transform="matrix(0.998, 0.07, -0.07, 0.998, 263.629, -3.756)" fill="#e6e6e6" opacity="0.7"/>
    <path id="Caminho_1538" data-name="Caminho 1538" d="M328.149,208.184H.843a.347.347,0,0,1,0-.694H328.149a.347.347,0,0,1,.245.1.347.347,0,0,1-.245.592Z" transform="translate(-0.496 -0.49)" fill="#3f3d56"/>
  </g>
</svg>
